<?xml version="1.0" encoding="UTF-8" ?><svg xmlns="http://www.w3.org/2000/svg" version="1.1"><desc>Created with Snap</desc><defs></defs><g style="text-anchor: end;"><text x="250" y="56">Background Research</text><text x="250" y="106">Idea Generation</text><text x="250" y="156">Synopsis Writing</text><text x="250" y="206">Requirement Interviews</text><text x="250" y="256">Blockchain Design (Iteration 1)</text><text x="250" y="306">Blockchain Design (Iteration 2)</text><text x="250" y="356">Learner App Implementation</text><text x="250" y="406">Teacher App Implementation</text><text x="250" y="456">Evaluation Interviews</text><text x="250" y="506">Paper Writing</text></g><g style="text-anchor: start;"><text x="240" y="556">Aug 17</text><text x="242.75" y="556"></text><text x="245.5" y="556"></text><text x="248.25" y="556"></text><text x="251" y="556"></text><text x="253.75" y="556"></text><text x="256.5" y="556"></text><text x="259.25" y="556"></text><text x="262" y="556"></text><text x="264.75" y="556"></text><text x="267.5" y="556"></text><text x="270.25" y="556"></text><text x="273" y="556"></text><text x="275.75" y="556"></text><text x="278.5" y="556"></text><text x="281.25" y="556"></text><text x="284" y="556"></text><text x="286.75" y="556"></text><text x="289.5" y="556"></text><text x="292.25" y="556"></text><text x="295" y="556"></text><text x="297.75" y="556"></text><text x="300.5" y="556"></text><text x="303.25" y="556"></text><text x="306" y="556"></text><text x="308.75" y="556"></text><text x="311.5" y="556"></text><text x="314.25" y="556"></text><text x="317" y="556"></text><text x="319.75" y="556"></text><text x="322.5" y="556"></text><text x="325.25" y="556">Sep 17</text><text x="328" y="556"></text><text x="330.75" y="556"></text><text x="333.5" y="556"></text><text x="336.25" y="556"></text><text x="339" y="556"></text><text x="341.75" y="556"></text><text x="344.5" y="556"></text><text x="347.25" y="556"></text><text x="350" y="556"></text><text x="352.75" y="556"></text><text x="355.5" y="556"></text><text x="358.25" y="556"></text><text x="361" y="556"></text><text x="363.75" y="556"></text><text x="366.5" y="556"></text><text x="369.25" y="556"></text><text x="372" y="556"></text><text x="374.75" y="556"></text><text x="377.5" y="556"></text><text x="380.25" y="556"></text><text x="383" y="556"></text><text x="385.75" y="556"></text><text x="388.5" y="556"></text><text x="391.25" y="556"></text><text x="394" y="556"></text><text x="396.75" y="556"></text><text x="399.5" y="556"></text><text x="402.25" y="556"></text><text x="405" y="556"></text><text x="407.75" y="556">Oct 17</text><text x="410.5" y="556"></text><text x="413.25" y="556"></text><text x="416" y="556"></text><text x="418.75" y="556"></text><text x="421.5" y="556"></text><text x="424.25" y="556"></text><text x="427" y="556"></text><text x="429.75" y="556"></text><text x="432.5" y="556"></text><text x="435.25" y="556"></text><text x="438" y="556"></text><text x="440.75" y="556"></text><text x="443.5" y="556"></text><text x="446.25" y="556"></text><text x="449" y="556"></text><text x="451.75" y="556"></text><text x="454.5" y="556"></text><text x="457.25" y="556"></text><text x="460" y="556"></text><text x="462.75" y="556"></text><text x="465.5" y="556"></text><text x="468.25" y="556"></text><text x="471" y="556"></text><text x="473.75" y="556"></text><text x="476.5" y="556"></text><text x="479.25" y="556"></text><text x="482" y="556"></text><text x="484.75" y="556"></text><text x="487.5" y="556"></text><text x="490.25" y="556"></text><text x="493" y="556">Nov 17</text><text x="495.75" y="556"></text><text x="498.5" y="556"></text><text x="501.25" y="556"></text><text x="504" y="556"></text><text x="506.75" y="556"></text><text x="509.5" y="556"></text><text x="512.25" y="556"></text><text x="515" y="556"></text><text x="517.75" y="556"></text><text x="520.5" y="556"></text><text x="523.25" y="556"></text><text x="526" y="556"></text><text x="528.75" y="556"></text><text x="531.5" y="556"></text><text x="534.25" y="556"></text><text x="537" y="556"></text><text x="539.75" y="556"></text><text x="542.5" y="556"></text><text x="545.25" y="556"></text><text x="548" y="556"></text><text x="550.75" y="556"></text><text x="553.5" y="556"></text><text x="556.25" y="556"></text><text x="559" y="556"></text><text x="561.75" y="556"></text><text x="564.5" y="556"></text><text x="567.25" y="556"></text><text x="570" y="556"></text><text x="572.75" y="556"></text><text x="575.5" y="556">Dec 17</text><text x="578.25" y="556"></text><text x="581" y="556"></text><text x="583.75" y="556"></text><text x="586.5" y="556"></text><text x="589.25" y="556"></text><text x="592" y="556"></text><text x="594.75" y="556"></text><text x="597.5" y="556"></text><text x="600.25" y="556"></text><text x="603" y="556"></text><text x="605.75" y="556"></text><text x="608.5" y="556"></text><text x="611.25" y="556"></text><text x="614" y="556"></text><text x="616.75" y="556"></text><text x="619.5" y="556"></text><text x="622.25" y="556"></text><text x="625" y="556"></text><text x="627.75" y="556"></text><text x="630.5" y="556"></text><text x="633.25" y="556"></text><text x="636" y="556"></text><text x="638.75" y="556"></text><text x="641.5" y="556"></text><text x="644.25" y="556"></text><text x="647" y="556"></text><text x="649.75" y="556"></text><text x="652.5" y="556"></text><text x="655.25" y="556"></text><text x="658" y="556"></text><text x="660.75" y="556">Jan 18</text><text x="663.5" y="556"></text><text x="666.25" y="556"></text><text x="669" y="556"></text><text x="671.75" y="556"></text><text x="674.5" y="556"></text><text x="677.25" y="556"></text><text x="680" y="556"></text><text x="682.75" y="556"></text><text x="685.5" y="556"></text><text x="688.25" y="556"></text><text x="691" y="556"></text><text x="693.75" y="556"></text><text x="696.5" y="556"></text><text x="699.25" y="556"></text><text x="702" y="556"></text><text x="704.75" y="556"></text><text x="707.5" y="556"></text><text x="710.25" y="556"></text><text x="713" y="556"></text><text x="715.75" y="556"></text><text x="718.5" y="556"></text><text x="721.25" y="556"></text><text x="724" y="556"></text><text x="726.75" y="556"></text><text x="729.5" y="556"></text><text x="732.25" y="556"></text><text x="735" y="556"></text><text x="737.75" y="556"></text><text x="740.5" y="556"></text><text x="743.25" y="556"></text><text x="746" y="556">Feb 18</text><text x="748.75" y="556"></text><text x="751.5" y="556"></text><text x="754.25" y="556"></text><text x="757" y="556"></text><text x="759.75" y="556"></text><text x="762.5" y="556"></text><text x="765.25" y="556"></text><text x="768" y="556"></text><text x="770.75" y="556"></text><text x="773.5" y="556"></text><text x="776.25" y="556"></text><text x="779" y="556"></text><text x="781.75" y="556"></text><text x="784.5" y="556"></text><text x="787.25" y="556"></text><text x="790" y="556"></text><text x="792.75" y="556"></text><text x="795.5" y="556"></text><text x="798.25" y="556"></text><text x="801" y="556"></text><text x="803.75" y="556"></text><text x="806.5" y="556"></text><text x="809.25" y="556"></text><text x="812" y="556"></text><text x="814.75" y="556"></text><text x="817.5" y="556"></text><text x="820.25" y="556"></text><text x="823" y="556">Mar 18</text><text x="825.75" y="556"></text><text x="828.5" y="556"></text><text x="831.25" y="556"></text><text x="834" y="556"></text><text x="836.75" y="556"></text><text x="839.5" y="556"></text><text x="842.25" y="556"></text><text x="845" y="556"></text><text x="847.75" y="556"></text><text x="850.5" y="556"></text><text x="853.25" y="556"></text><text x="856" y="556"></text><text x="858.75" y="556"></text><text x="861.5" y="556"></text><text x="864.25" y="556"></text><text x="867" y="556"></text><text x="869.75" y="556"></text><text x="872.5" y="556"></text><text x="875.25" y="556"></text><text x="878" y="556"></text><text x="880.75" y="556"></text><text x="883.5" y="556"></text><text x="886.25" y="556"></text><text x="889" y="556"></text><text x="891.75" y="556"></text><text x="894.5" y="556"></text><text x="897.25" y="556"></text><text x="900" y="556"></text><text x="902.75" y="556"></text><text x="905.5" y="556"></text></g><g style="stroke-width: 2;" fill="none" stroke="#808080"><path d="M 339.75 112 V 134 a 15 15 0 0 0 15 15 L 419.5 149 m -7 -7 l 7 7 l -7 7"></path><path d="M 705.5 212 V 284 a 15 15 0 0 0 15 15 L 832 299 m -7 -7 l 7 7 l -7 7"></path><path d="M 660.125 262 V 334 a 15 15 0 0 0 15 15 L 716.5 349 m -7 -7 l 7 7 l -7 7"></path><path d="M 660.125 262 V 384 a 15 15 0 0 0 15 15 L 840.25 399 m -7 -7 l 7 7 l -7 7"></path><path d="M 847.125 312 V 434 a 15 15 0 0 0 15 15 L 889.75 449 m -7 -7 l 7 7 l -7 7"></path><path d="M 552.875 62 V 484 a 15 15 0 0 0 15 15 L 625.75 499 m -7 -7 l 7 7 l -7 7"></path></g><text x="263" y="33" style="font-size: 13px;">1 Aug - 2 Mar</text><rect x="260" y="36" width="585.75" height="26" rx="5" ry="5" style="" fill="#5e97f6"></rect><rect x="260" y="36" width="585.75" height="26" rx="5" ry="5" style="" fill="#2a56c6"></rect><text x="263" y="83" style="font-size: 13px;">1 Aug - 28 Sep</text><rect x="260" y="86" width="159.5" height="26" rx="5" ry="5" style="" fill="#5e97f6"></rect><rect x="260" y="86" width="159.5" height="26" rx="5" ry="5" style="" fill="#2a56c6"></rect><text x="422.5" y="133" style="font-size: 13px;">28 Sep - 27 Oct</text><rect x="419.5" y="136" width="79.75" height="26" rx="5" ry="5" style="" fill="#5e97f6"></rect><rect x="419.5" y="136" width="79.75" height="26" rx="5" ry="5" style="" fill="#2a56c6"></rect><text x="612.25" y="183" style="font-size: 13px;">6 Dec - 14 Feb</text><rect x="609.25" y="186" width="192.5" height="26" rx="5" ry="5" style="" fill="#5e97f6"></rect><rect x="609.25" y="186" width="192.5" height="26" rx="5" ry="5" style="" fill="#2a56c6"></rect><text x="491.25" y="233" style="font-size: 13px;">23 Oct - 25 Feb</text><rect x="488.25" y="236" width="343.75" height="26" rx="5" ry="5" style="" fill="#5e97f6"></rect><rect x="488.25" y="236" width="0" height="26" rx="5" ry="5" style="" fill="#2a56c6"></rect><text x="835" y="283" style="font-size: 13px;">25 Feb - 8 Mar</text><rect x="832" y="286" width="30.25" height="26" rx="5" ry="5" style="" fill="#5e97f6"></rect><rect x="832" y="286" width="0" height="26" rx="5" ry="5" style="" fill="#2a56c6"></rect><text x="719.5" y="333" style="font-size: 13px;">14 Jan - 8 Mar</text><rect x="716.5" y="336" width="145.75" height="26" rx="5" ry="5" style="" fill="#5e97f6"></rect><rect x="716.5" y="336" width="0" height="26" rx="5" ry="5" style="" fill="#2a56c6"></rect><text x="843.25" y="383" style="font-size: 13px;">28 Feb - 8 Mar</text><rect x="840.25" y="386" width="22" height="26" rx="5" ry="5" style="" fill="#5e97f6"></rect><rect x="840.25" y="386" width="0" height="26" rx="5" ry="5" style="" fill="#2a56c6"></rect><text x="892.75" y="433" style="font-size: 13px;">18 Mar - 22 Mar</text><rect x="889.75" y="436" width="11" height="26" rx="5" ry="5" style="" fill="#5e97f6"></rect><rect x="889.75" y="436" width="11" height="26" rx="5" ry="5" style="" fill="#2a56c6"></rect><text x="628.75" y="483" style="font-size: 13px;">12 Dec - 31 Mar</text><rect x="625.75" y="486" width="299.75" height="26" rx="5" ry="5" style="" fill="#5e97f6"></rect><rect x="625.75" y="486" width="299.75" height="26" rx="5" ry="5" style="" fill="#2a56c6"></rect></svg>
