<?xml version="1.0" encoding="UTF-8" ?><svg xmlns="http://www.w3.org/2000/svg" version="1.1">
  <desc>Created with Snap</desc><defs></defs><g style="text-anchor: end;"><text x="230" y="56">Background Research</text><text x="230" y="106">Idea Generation</text><text x="230" y="156">Synopsis Writing</text><text x="230" y="206">Requirement Interviews</text><text x="230" y="256">Blockchain Design (Iteration 1)</text><text x="230" y="306">Blockchain Design (Iteration 2)</text><text x="230" y="356">Learner App Implementation</text><text x="230" y="406">Teacher App Implementation</text><text x="230" y="456">Evaluation Interviews</text><text x="230" y="506">Paper Writing</text></g><g style="text-anchor: start;"><text x="240" y="556">Aug 17</text><text x="243" y="556"></text><text x="246" y="556"></text><text x="249" y="556"></text><text x="252" y="556"></text><text x="255" y="556"></text><text x="258" y="556"></text><text x="261" y="556"></text><text x="264" y="556"></text><text x="267" y="556"></text><text x="270" y="556"></text><text x="273" y="556"></text><text x="276" y="556"></text><text x="279" y="556"></text><text x="282" y="556"></text><text x="285" y="556"></text><text x="288" y="556"></text><text x="291" y="556"></text><text x="294" y="556"></text><text x="297" y="556"></text><text x="300" y="556"></text><text x="303" y="556"></text><text x="306" y="556"></text><text x="309" y="556"></text><text x="312" y="556"></text><text x="315" y="556"></text><text x="318" y="556"></text><text x="321" y="556"></text><text x="324" y="556"></text><text x="327" y="556"></text><text x="330" y="556"></text><text x="333" y="556">Sep 17</text><text x="336" y="556"></text><text x="339" y="556"></text><text x="342" y="556"></text><text x="345" y="556"></text><text x="348" y="556"></text><text x="351" y="556"></text><text x="354" y="556"></text><text x="357" y="556"></text><text x="360" y="556"></text><text x="363" y="556"></text><text x="366" y="556"></text><text x="369" y="556"></text><text x="372" y="556"></text><text x="375" y="556"></text><text x="378" y="556"></text><text x="381" y="556"></text><text x="384" y="556"></text><text x="387" y="556"></text><text x="390" y="556"></text><text x="393" y="556"></text><text x="396" y="556"></text><text x="399" y="556"></text><text x="402" y="556"></text><text x="405" y="556"></text><text x="408" y="556"></text><text x="411" y="556"></text><text x="414" y="556"></text><text x="417" y="556"></text><text x="420" y="556"></text><text x="423" y="556">Oct 17</text><text x="426" y="556"></text><text x="429" y="556"></text><text x="432" y="556"></text><text x="435" y="556"></text><text x="438" y="556"></text><text x="441" y="556"></text><text x="444" y="556"></text><text x="447" y="556"></text><text x="450" y="556"></text><text x="453" y="556"></text><text x="456" y="556"></text><text x="459" y="556"></text><text x="462" y="556"></text><text x="465" y="556"></text><text x="468" y="556"></text><text x="471" y="556"></text><text x="474" y="556"></text><text x="477" y="556"></text><text x="480" y="556"></text><text x="483" y="556"></text><text x="486" y="556"></text><text x="489" y="556"></text><text x="492" y="556"></text><text x="495" y="556"></text><text x="498" y="556"></text><text x="501" y="556"></text><text x="504" y="556"></text><text x="507" y="556"></text><text x="510" y="556"></text><text x="513" y="556"></text><text x="516" y="556">Nov 17</text><text x="519" y="556"></text><text x="522" y="556"></text><text x="525" y="556"></text><text x="528" y="556"></text><text x="531" y="556"></text><text x="534" y="556"></text><text x="537" y="556"></text><text x="540" y="556"></text><text x="543" y="556"></text><text x="546" y="556"></text><text x="549" y="556"></text><text x="552" y="556"></text><text x="555" y="556"></text><text x="558" y="556"></text><text x="561" y="556"></text><text x="564" y="556"></text><text x="567" y="556"></text><text x="570" y="556"></text><text x="573" y="556"></text><text x="576" y="556"></text><text x="579" y="556"></text><text x="582" y="556"></text><text x="585" y="556"></text><text x="588" y="556"></text><text x="591" y="556"></text><text x="594" y="556"></text><text x="597" y="556"></text><text x="600" y="556"></text><text x="603" y="556"></text><text x="606" y="556">Dec 17</text><text x="609" y="556"></text><text x="612" y="556"></text><text x="615" y="556"></text><text x="618" y="556"></text><text x="621" y="556"></text><text x="624" y="556"></text><text x="627" y="556"></text><text x="630" y="556"></text><text x="633" y="556"></text><text x="636" y="556"></text><text x="639" y="556"></text><text x="642" y="556"></text><text x="645" y="556"></text><text x="648" y="556"></text><text x="651" y="556"></text><text x="654" y="556"></text><text x="657" y="556"></text><text x="660" y="556"></text><text x="663" y="556"></text><text x="666" y="556"></text><text x="669" y="556"></text><text x="672" y="556"></text><text x="675" y="556"></text><text x="678" y="556"></text><text x="681" y="556"></text><text x="684" y="556"></text><text x="687" y="556"></text><text x="690" y="556"></text><text x="693" y="556"></text><text x="696" y="556"></text><text x="699" y="556">Jan 18</text><text x="702" y="556"></text><text x="705" y="556"></text><text x="708" y="556"></text><text x="711" y="556"></text><text x="714" y="556"></text><text x="717" y="556"></text><text x="720" y="556"></text><text x="723" y="556"></text><text x="726" y="556"></text><text x="729" y="556"></text><text x="732" y="556"></text><text x="735" y="556"></text><text x="738" y="556"></text><text x="741" y="556"></text><text x="744" y="556"></text><text x="747" y="556"></text><text x="750" y="556"></text><text x="753" y="556"></text><text x="756" y="556"></text><text x="759" y="556"></text><text x="762" y="556"></text><text x="765" y="556"></text><text x="768" y="556"></text><text x="771" y="556"></text><text x="774" y="556"></text><text x="777" y="556"></text><text x="780" y="556"></text><text x="783" y="556"></text><text x="786" y="556"></text><text x="789" y="556"></text><text x="792" y="556">Feb 18</text><text x="795" y="556"></text><text x="798" y="556"></text><text x="801" y="556"></text><text x="804" y="556"></text><text x="807" y="556"></text><text x="810" y="556"></text><text x="813" y="556"></text><text x="816" y="556"></text><text x="819" y="556"></text><text x="822" y="556"></text><text x="825" y="556"></text><text x="828" y="556"></text><text x="831" y="556"></text><text x="834" y="556"></text><text x="837" y="556"></text><text x="840" y="556"></text><text x="843" y="556"></text><text x="846" y="556"></text><text x="849" y="556"></text><text x="852" y="556"></text><text x="855" y="556"></text><text x="858" y="556"></text><text x="861" y="556"></text><text x="864" y="556"></text><text x="867" y="556"></text><text x="870" y="556"></text><text x="873" y="556"></text><text x="876" y="556">Mar 18</text><text x="879" y="556"></text><text x="882" y="556"></text><text x="885" y="556"></text><text x="888" y="556"></text><text x="891" y="556"></text><text x="894" y="556"></text><text x="897" y="556"></text><text x="900" y="556"></text><text x="903" y="556"></text><text x="906" y="556"></text><text x="909" y="556"></text><text x="912" y="556"></text><text x="915" y="556"></text><text x="918" y="556"></text><text x="921" y="556"></text><text x="924" y="556"></text><text x="927" y="556"></text><text x="930" y="556"></text><text x="933" y="556"></text><text x="936" y="556"></text><text x="939" y="556"></text><text x="942" y="556"></text><text x="945" y="556"></text><text x="948" y="556"></text><text x="951" y="556"></text><text x="954" y="556"></text><text x="957" y="556"></text><text x="960" y="556"></text><text x="963" y="556"></text><text x="966" y="556"></text></g><g style="stroke-width: 2;" fill="none" stroke="#808080"><path d="M 327 112 V 134 a 15 15 0 0 0 15 15 L 414 149 m -7 -7 l 7 7 l -7 7"></path><path d="M 726 212 V 284 a 15 15 0 0 0 15 15 L 864 299 m -7 -7 l 7 7 l -7 7"></path><path d="M 676.5 262 V 334 a 15 15 0 0 0 15 15 L 738 349 m -7 -7 l 7 7 l -7 7"></path><path d="M 676.5 262 V 384 a 15 15 0 0 0 15 15 L 873 399 m -7 -7 l 7 7 l -7 7"></path><path d="M 880.5 312 V 434 a 15 15 0 0 0 15 15 L 927 449 m -7 -7 l 7 7 l -7 7"></path><path d="M 559.5 62 V 484 a 15 15 0 0 0 15 15 L 639 499 m -7 -7 l 7 7 l -7 7"></path></g><text x="243" y="33" style="font-size: 13px;">1 Aug - 2 Mar</text><rect x="240" y="36" width="639" height="26" rx="5" ry="5" style="" fill="#5e97f6"></rect><rect x="240" y="36" width="639" height="26" rx="5" ry="5" style="" fill="#2a56c6"></rect><text x="243" y="83" style="font-size: 13px;">1 Aug - 28 Sep</text><rect x="240" y="86" width="174" height="26" rx="5" ry="5" style="" fill="#5e97f6"></rect><rect x="240" y="86" width="174" height="26" rx="5" ry="5" style="" fill="#2a56c6"></rect><text x="417" y="133" style="font-size: 13px;">28 Sep - 27 Oct</text><rect x="414" y="136" width="87" height="26" rx="5" ry="5" style="" fill="#5e97f6"></rect><rect x="414" y="136" width="87" height="26" rx="5" ry="5" style="" fill="#2a56c6"></rect><text x="624" y="183" style="font-size: 13px;">6 Dec - 14 Feb</text><rect x="621" y="186" width="210" height="26" rx="5" ry="5" style="" fill="#5e97f6"></rect><rect x="621" y="186" width="210" height="26" rx="5" ry="5" style="" fill="#2a56c6"></rect><text x="492" y="233" style="font-size: 13px;">23 Oct - 25 Feb</text><rect x="489" y="236" width="375" height="26" rx="5" ry="5" style="" fill="#5e97f6"></rect><rect x="489" y="236" width="0" height="26" rx="5" ry="5" style="" fill="#2a56c6"></rect><text x="867" y="283" style="font-size: 13px;">25 Feb - 8 Mar</text><rect x="864" y="286" width="33" height="26" rx="5" ry="5" style="" fill="#5e97f6"></rect><rect x="864" y="286" width="0" height="26" rx="5" ry="5" style="" fill="#2a56c6"></rect><text x="741" y="333" style="font-size: 13px;">14 Jan - 8 Mar</text><rect x="738" y="336" width="159" height="26" rx="5" ry="5" style="" fill="#5e97f6"></rect><rect x="738" y="336" width="0" height="26" rx="5" ry="5" style="" fill="#2a56c6"></rect><text x="876" y="383" style="font-size: 13px;">28 Feb - 8 Mar</text><rect x="873" y="386" width="24" height="26" rx="5" ry="5" style="" fill="#5e97f6"></rect><rect x="873" y="386" width="0" height="26" rx="5" ry="5" style="" fill="#2a56c6"></rect><text x="930" y="433" style="font-size: 13px;">18 Mar - 22 Mar</text><rect x="927" y="436" width="12" height="26" rx="5" ry="5" style="" fill="#5e97f6"></rect><rect x="927" y="436" width="12" height="26" rx="5" ry="5" style="" fill="#2a56c6"></rect><text x="642" y="483" style="font-size: 13px;">12 Dec - 31 Mar</text><rect x="639" y="486" width="327" height="26" rx="5" ry="5" style="" fill="#5e97f6"></rect><rect x="639" y="486" width="327" height="26" rx="5" ry="5" style="" fill="#2a56c6"></rect></svg>